<?xml version="1.0" encoding="UTF-8"?>
<svg width="50px" height="50px" viewBox="0 0 50 50" version="1.1" xmlns="http://www.w3.org/2000/svg" xmlns:xlink="http://www.w3.org/1999/xlink">
    <!-- Generator: Sketch 46.1 (44463) - http://www.bohemiancoding.com/sketch -->
    <title>ic_mic</title>
    <desc>Created with Sketch.</desc>
    <defs></defs>
    <g id="weekly-report" stroke="none" stroke-width="1" fill="none" fill-rule="evenodd">
        <g id="完整版" transform="translate(-79.000000, -2023.000000)">
            <g id="点评" transform="translate(40.000000, 1984.000000)">
                <g id="ic_mic" transform="translate(40.000000, 40.000000)">
                    <polygon id="Stroke-1" stroke-opacity="0.00784313771" stroke="#000000" stroke-width="0.5" points="0 0 47.999997 0 47.999997 47.999997 0 47.999997"></polygon>
                    <path d="M23.9999986,27.9999983 C27.319998,27.9999983 29.9799976,25.3199981 29.9799976,21.9999987 L29.9999982,9.9999994 C29.9999982,6.67999942 27.319998,3.99999976 23.9999986,3.99999976 C20.679999,3.99999976 17.9999989,6.67999942 17.9999989,9.9999994 L17.9999989,21.9999987 C17.9999989,25.3199981 20.679999,27.9999983 23.9999986,27.9999983 Z M34.5999963,21.9999987 C34.5999963,27.9999983 29.5199966,32.1999987 23.9999966,32.1999987 C18.4799965,32.1999987 13.3999988,27.9999983 13.3999988,21.9999987 L9.9999994,21.9999987 C9.9999994,28.8199979 15.4399996,34.4599969 21.9999987,35.4399965 L21.9999987,41.9999975 L25.9999984,41.9999975 L25.9999984,35.4399965 C32.5599992,34.4799973 37.9999977,28.8399965 37.9999977,21.9999987 L34.5999963,21.9999987 Z" id="Fill-2" fill="#FF6600"></path>
                </g>
            </g>
        </g>
    </g>
</svg>