<svg width="17px" height="22px" viewBox="0 0 17 22" version="1.1" xmlns="http://www.w3.org/2000/svg" xmlns:xlink="http://www.w3.org/1999/xlink">
    <!-- Generator: Sketch 47.1 (45422) - http://www.bohemiancoding.com/sketch -->
    <desc>Created with Sketch.</desc>
    <defs></defs>
    <g id="Page-1" stroke="none" stroke-width="1" fill="none" fill-rule="evenodd">
        <g id="首页_未开始" transform="translate(-44.000000, -632.000000)" fill="#42343E">
            <g id="bar" transform="translate(0.000000, 618.000000)">
                <g id="Page-1" transform="translate(40.000000, 13.000000)">
                    <g id="Group" transform="translate(4.000000, 1.000000)">
                        <path d="M15.11111,-1.65600027e-07 L14.1666656,-1.65600027e-07 L12.2777769,-1.65600027e-07 L4.72222177,-1.65600027e-07 L2.83333299,-1.65600027e-07 L1.8888886,-1.65600027e-07 C0.840555202,-1.65600027e-07 0.00944426382,0.824999867 0.00944426382,1.83333306 L-1.70618209e-07,20.1666656 C-1.70618209e-07,21.1749992 0.840555202,21.9999988 1.8888886,21.9999988 L15.11111,21.9999988 C16.1499991,21.9999988 16.9999988,21.1749992 16.9999988,20.1666656 L16.9999988,1.83333306 C16.9999988,0.824999867 16.1499991,-1.65600027e-07 15.11111,-1.65600027e-07 Z M15.11111,20.1666656 L1.8888886,20.1666656 L1.8888886,2.74999983 L15.11111,2.74999983 L15.11111,20.1666656 Z M2.83333316,5.49999983 L14.1666665,5.49999983 L14.1666665,19.2499998 L2.83333316,19.2499998 L2.83333316,5.49999983 Z" id="Fill-2"></path>
                        <rect id="Rectangle-2" x="2.83333333" y="3.66666667" width="7.55555556" height="1"></rect>
                    </g>
                </g>
            </g>
        </g>
    </g>
</svg>
