<?xml version="1.0" encoding="UTF-8"?>
<svg width="50px" height="50px" viewBox="0 0 50 50" version="1.1" xmlns="http://www.w3.org/2000/svg" xmlns:xlink="http://www.w3.org/1999/xlink">
    <!-- Generator: Sketch 46.1 (44463) - http://www.bohemiancoding.com/sketch -->
    <title>ic_tips</title>
    <desc>Created with Sketch.</desc>
    <defs></defs>
    <g id="weekly-report" stroke="none" stroke-width="1" fill="none" fill-rule="evenodd">
        <g id="完整版" transform="translate(-79.000000, -865.000000)">
            <g id="点评" transform="translate(40.000000, 826.000000)">
                <g id="ic_tips" transform="translate(64.000000, 64.000000) scale(1, -1) translate(-64.000000, -64.000000) translate(40.000000, 40.000000)">
                    <polygon id="Stroke-1" stroke-opacity="0.00784313771" stroke="#000000" stroke-width="0.5" points="0 0 47.999997 0 47.999997 47.999997 0 47.999997"></polygon>
                    <path d="M7.09999947,37.0799996 L9.91999946,39.899999 L13.4999992,36.3000008 L10.6799997,33.4800012 L7.09999995,37.0799996 L7.09999947,37.0799996 Z M21.9999987,44.8999987 L25.9999984,44.8999987 L25.9999984,38.9999977 L21.9999987,38.9999977 L21.9999987,44.8999987 Z M7.99999952,20.9999987 L1.99999988,20.9999987 L1.99999988,24.9999985 L7.99999952,24.9999985 L7.99999952,20.9999987 Z M29.9999982,12.6199991 L29.9999982,2.99999982 L17.9999989,2.99999982 L17.9999989,12.6199991 C14.4199992,14.6999989 11.9999993,18.5599983 11.9999993,22.9999986 C11.9999993,29.619997 17.38,34.9999979 23.9999986,34.9999979 C30.619997,34.9999979 35.9999978,29.619997 35.9999978,22.9999986 C35.9999978,18.5599983 33.5799998,14.6999989 29.9999982,12.6199991 Z M39.9999976,20.9999987 L39.9999976,24.9999985 L45.9999972,24.9999985 L45.9999972,20.9999987 L39.9999976,20.9999987 Z M34.4799973,36.3199974 L38.0599951,39.9199956 L40.8799947,37.0999962 L37.2799964,33.5199946 L34.4799973,36.3199936 L34.4799973,36.3199974 Z" id="Fill-2" fill="#FF6600"></path>
                </g>
            </g>
        </g>
    </g>
</svg>